<mxfile host="Electron" modified="2023-11-27T17:07:13.973Z" agent="Mozilla/5.0 (Windows NT 10.0; Win64; x64) AppleWebKit/537.36 (KHTML, like Gecko) draw.io/22.0.2 Chrome/114.0.5735.289 Electron/25.8.4 Safari/537.36" etag="1r8rhOwz054BfD2mkTnf" version="22.0.2" type="device">
  <diagram name="Page-1" id="2YBvvXClWsGukQMizWep">
    <mxGraphModel dx="767" dy="449" grid="1" gridSize="10" guides="1" tooltips="1" connect="1" arrows="1" fold="1" page="1" pageScale="1" pageWidth="850" pageHeight="1100" math="0" shadow="0">
      <root>
        <mxCell id="0" />
        <mxCell id="1" parent="0" />
        <mxCell id="aM9ryv3xv72pqoxQDRHE-5" value=":System" style="shape=umlLifeline;perimeter=lifelinePerimeter;whiteSpace=wrap;html=1;container=0;dropTarget=0;collapsible=0;recursiveResize=0;outlineConnect=0;portConstraint=eastwest;newEdgeStyle={&quot;edgeStyle&quot;:&quot;elbowEdgeStyle&quot;,&quot;elbow&quot;:&quot;vertical&quot;,&quot;curved&quot;:0,&quot;rounded&quot;:0};" parent="1" vertex="1">
          <mxGeometry x="235" y="40" width="100" height="300" as="geometry" />
        </mxCell>
        <mxCell id="aM9ryv3xv72pqoxQDRHE-6" value="" style="html=1;points=[];perimeter=orthogonalPerimeter;outlineConnect=0;targetShapes=umlLifeline;portConstraint=eastwest;newEdgeStyle={&quot;edgeStyle&quot;:&quot;elbowEdgeStyle&quot;,&quot;elbow&quot;:&quot;vertical&quot;,&quot;curved&quot;:0,&quot;rounded&quot;:0};" parent="aM9ryv3xv72pqoxQDRHE-5" vertex="1">
          <mxGeometry x="45" y="77" width="10" height="73" as="geometry" />
        </mxCell>
        <mxCell id="m06igTMnx7oIf_TWPxWL-19" value="" style="html=1;points=[];perimeter=orthogonalPerimeter;outlineConnect=0;targetShapes=umlLifeline;portConstraint=eastwest;newEdgeStyle={&quot;edgeStyle&quot;:&quot;elbowEdgeStyle&quot;,&quot;elbow&quot;:&quot;vertical&quot;,&quot;curved&quot;:0,&quot;rounded&quot;:0};" vertex="1" parent="aM9ryv3xv72pqoxQDRHE-5">
          <mxGeometry x="45" y="180" width="10" height="110" as="geometry" />
        </mxCell>
        <mxCell id="aM9ryv3xv72pqoxQDRHE-7" value="login and selects profile management" style="html=1;verticalAlign=bottom;endArrow=block;edgeStyle=elbowEdgeStyle;elbow=vertical;curved=0;rounded=0;" parent="1" source="m06igTMnx7oIf_TWPxWL-4" target="aM9ryv3xv72pqoxQDRHE-6" edge="1">
          <mxGeometry x="0.0041" relative="1" as="geometry">
            <mxPoint x="109.99999999999989" y="120.00000000000006" as="sourcePoint" />
            <Array as="points">
              <mxPoint x="195" y="120" />
            </Array>
            <mxPoint as="offset" />
          </mxGeometry>
        </mxCell>
        <mxCell id="m06igTMnx7oIf_TWPxWL-1" value=":Database" style="shape=umlLifeline;perimeter=lifelinePerimeter;whiteSpace=wrap;html=1;container=0;dropTarget=0;collapsible=0;recursiveResize=0;outlineConnect=0;portConstraint=eastwest;newEdgeStyle={&quot;edgeStyle&quot;:&quot;elbowEdgeStyle&quot;,&quot;elbow&quot;:&quot;vertical&quot;,&quot;curved&quot;:0,&quot;rounded&quot;:0};" vertex="1" parent="1">
          <mxGeometry x="422" y="40" width="100" height="300" as="geometry" />
        </mxCell>
        <mxCell id="m06igTMnx7oIf_TWPxWL-2" value="" style="html=1;points=[];perimeter=orthogonalPerimeter;outlineConnect=0;targetShapes=umlLifeline;portConstraint=eastwest;newEdgeStyle={&quot;edgeStyle&quot;:&quot;elbowEdgeStyle&quot;,&quot;elbow&quot;:&quot;vertical&quot;,&quot;curved&quot;:0,&quot;rounded&quot;:0};" vertex="1" parent="m06igTMnx7oIf_TWPxWL-1">
          <mxGeometry x="45" y="83" width="10" height="57" as="geometry" />
        </mxCell>
        <mxCell id="m06igTMnx7oIf_TWPxWL-3" value=":Student/Gaurdian" style="shape=umlLifeline;perimeter=lifelinePerimeter;whiteSpace=wrap;html=1;container=0;dropTarget=0;collapsible=0;recursiveResize=0;outlineConnect=0;portConstraint=eastwest;newEdgeStyle={&quot;edgeStyle&quot;:&quot;elbowEdgeStyle&quot;,&quot;elbow&quot;:&quot;vertical&quot;,&quot;curved&quot;:0,&quot;rounded&quot;:0};" vertex="1" parent="1">
          <mxGeometry x="34" y="40" width="100" height="300" as="geometry" />
        </mxCell>
        <mxCell id="m06igTMnx7oIf_TWPxWL-4" value="" style="html=1;points=[];perimeter=orthogonalPerimeter;outlineConnect=0;targetShapes=umlLifeline;portConstraint=eastwest;newEdgeStyle={&quot;edgeStyle&quot;:&quot;elbowEdgeStyle&quot;,&quot;elbow&quot;:&quot;vertical&quot;,&quot;curved&quot;:0,&quot;rounded&quot;:0};" vertex="1" parent="m06igTMnx7oIf_TWPxWL-3">
          <mxGeometry x="45" y="69" width="10" height="161" as="geometry" />
        </mxCell>
        <mxCell id="m06igTMnx7oIf_TWPxWL-8" value="" style="html=1;points=[];perimeter=orthogonalPerimeter;outlineConnect=0;targetShapes=umlLifeline;portConstraint=eastwest;newEdgeStyle={&quot;edgeStyle&quot;:&quot;elbowEdgeStyle&quot;,&quot;elbow&quot;:&quot;vertical&quot;,&quot;curved&quot;:0,&quot;rounded&quot;:0};" vertex="1" parent="m06igTMnx7oIf_TWPxWL-3">
          <mxGeometry x="45" y="260" width="10" height="31" as="geometry" />
        </mxCell>
        <mxCell id="m06igTMnx7oIf_TWPxWL-7" value="request completed" style="html=1;verticalAlign=bottom;endArrow=open;dashed=1;endSize=8;edgeStyle=elbowEdgeStyle;elbow=vertical;curved=0;rounded=0;" edge="1" parent="1" target="m06igTMnx7oIf_TWPxWL-8">
          <mxGeometry x="0.2604" y="-7" relative="1" as="geometry">
            <mxPoint x="101" y="317" as="targetPoint" />
            <Array as="points">
              <mxPoint x="206" y="317" />
            </Array>
            <mxPoint x="281" y="317" as="sourcePoint" />
            <mxPoint as="offset" />
          </mxGeometry>
        </mxCell>
        <mxCell id="m06igTMnx7oIf_TWPxWL-17" value="students data" style="html=1;verticalAlign=bottom;endArrow=open;dashed=1;endSize=8;edgeStyle=elbowEdgeStyle;elbow=vertical;curved=0;rounded=0;" edge="1" parent="1">
          <mxGeometry x="-0.0417" relative="1" as="geometry">
            <mxPoint x="289" y="171" as="targetPoint" />
            <Array as="points" />
            <mxPoint x="462.0000000000001" y="171.3" as="sourcePoint" />
            <mxPoint as="offset" />
          </mxGeometry>
        </mxCell>
        <mxCell id="m06igTMnx7oIf_TWPxWL-20" value="requests to add/update/delete student" style="html=1;verticalAlign=bottom;endArrow=block;edgeStyle=elbowEdgeStyle;elbow=vertical;curved=0;rounded=0;" edge="1" parent="1" source="m06igTMnx7oIf_TWPxWL-4" target="aM9ryv3xv72pqoxQDRHE-5">
          <mxGeometry x="0.0332" relative="1" as="geometry">
            <mxPoint x="100" y="240" as="sourcePoint" />
            <Array as="points">
              <mxPoint x="195" y="240" />
            </Array>
            <mxPoint x="450.13" y="193.69" as="targetPoint" />
            <mxPoint as="offset" />
          </mxGeometry>
        </mxCell>
        <mxCell id="m06igTMnx7oIf_TWPxWL-23" value="fetches students data" style="html=1;verticalAlign=bottom;endArrow=block;edgeStyle=elbowEdgeStyle;elbow=vertical;curved=0;rounded=0;" edge="1" parent="1" target="m06igTMnx7oIf_TWPxWL-2">
          <mxGeometry x="0.0078" relative="1" as="geometry">
            <mxPoint x="292" y="141" as="sourcePoint" />
            <Array as="points" />
            <mxPoint x="441.5" y="141" as="targetPoint" />
            <mxPoint as="offset" />
          </mxGeometry>
        </mxCell>
        <mxCell id="m06igTMnx7oIf_TWPxWL-26" value="students data" style="html=1;verticalAlign=bottom;endArrow=open;dashed=1;endSize=8;edgeStyle=elbowEdgeStyle;elbow=vertical;curved=0;rounded=0;" edge="1" parent="1">
          <mxGeometry x="-0.1176" relative="1" as="geometry">
            <mxPoint x="83.75925925925924" y="185" as="targetPoint" />
            <Array as="points">
              <mxPoint x="190" y="185" />
            </Array>
            <mxPoint x="280" y="185" as="sourcePoint" />
            <mxPoint as="offset" />
          </mxGeometry>
        </mxCell>
        <mxCell id="m06igTMnx7oIf_TWPxWL-27" value="update the records" style="html=1;verticalAlign=bottom;endArrow=block;edgeStyle=elbowEdgeStyle;elbow=vertical;curved=0;rounded=0;" edge="1" parent="1" source="m06igTMnx7oIf_TWPxWL-28">
          <mxGeometry x="1" y="112" relative="1" as="geometry">
            <mxPoint x="290" y="280" as="sourcePoint" />
            <Array as="points">
              <mxPoint x="470" y="280" />
            </Array>
            <mxPoint x="470" y="280" as="targetPoint" />
            <mxPoint x="2" y="-20" as="offset" />
          </mxGeometry>
        </mxCell>
        <mxCell id="m06igTMnx7oIf_TWPxWL-29" value="" style="html=1;verticalAlign=bottom;endArrow=block;edgeStyle=elbowEdgeStyle;elbow=vertical;curved=0;rounded=0;" edge="1" parent="1">
          <mxGeometry x="0.0332" relative="1" as="geometry">
            <mxPoint x="290" y="265" as="sourcePoint" />
            <Array as="points" />
            <mxPoint x="467" y="264.8888888888888" as="targetPoint" />
            <mxPoint as="offset" />
          </mxGeometry>
        </mxCell>
        <mxCell id="m06igTMnx7oIf_TWPxWL-28" value="" style="html=1;points=[];perimeter=orthogonalPerimeter;outlineConnect=0;targetShapes=umlLifeline;portConstraint=eastwest;newEdgeStyle={&quot;edgeStyle&quot;:&quot;elbowEdgeStyle&quot;,&quot;elbow&quot;:&quot;vertical&quot;,&quot;curved&quot;:0,&quot;rounded&quot;:0};" vertex="1" parent="1">
          <mxGeometry x="467" y="246.5" width="10" height="57" as="geometry" />
        </mxCell>
        <mxCell id="m06igTMnx7oIf_TWPxWL-31" value="updated record" style="html=1;verticalAlign=bottom;endArrow=open;dashed=1;endSize=8;edgeStyle=elbowEdgeStyle;elbow=vertical;curved=0;rounded=0;" edge="1" parent="1">
          <mxGeometry x="-0.0417" relative="1" as="geometry">
            <mxPoint x="290" y="291.7037037037037" as="targetPoint" />
            <Array as="points" />
            <mxPoint x="467" y="291.7037037037037" as="sourcePoint" />
            <mxPoint as="offset" />
          </mxGeometry>
        </mxCell>
      </root>
    </mxGraphModel>
  </diagram>
</mxfile>
